<?xml version="1.0" standalone="no"?>
<!DOCTYPE svg PUBLIC "-//W3C//DTD SVG 20010904//EN"
 "http://www.w3.org/TR/2001/REC-SVG-20010904/DTD/svg10.dtd">
<svg version="1.0" xmlns="http://www.w3.org/2000/svg"
 width="504.000000pt" height="474.000000pt" viewBox="0 0 504.000000 474.000000"
 preserveAspectRatio="xMidYMid meet">

<g transform="translate(0.000000,474.000000) scale(0.100000,-0.100000)"
fill="#000000" stroke="none">
<path d="M2313 3472 c-8 -5 4 -12 32 -20 190 -51 284 -283 209 -512 -26 -77
-59 -131 -218 -359 -35 -50 -50 -81 -53 -115 l-6 -46 38 0 c24 0 72 16 129 43
88 41 94 42 191 42 96 0 103 -1 170 -38 172 -92 281 -239 351 -474 32 -108 43
-307 25 -459 -20 -165 -90 -397 -164 -541 -12 -23 -19 -45 -15 -48 19 -19 186
98 264 185 169 188 264 477 264 805 0 216 -25 368 -95 580 -165 504 -522 876
-913 951 -80 15 -190 18 -209 6z"/>
<path d="M1905 3253 c-128 -137 -226 -361 -261 -595 -23 -160 -14 -418 21
-578 94 -430 298 -776 588 -998 133 -101 356 -193 414 -171 40 15 111 95 147
167 53 105 124 326 141 437 33 218 15 386 -59 537 -68 142 -176 238 -266 238
-20 0 -69 -17 -116 -40 -116 -57 -193 -73 -265 -56 -142 33 -196 114 -187 281
6 98 30 149 149 315 127 177 160 254 145 335 -8 43 -57 101 -101 119 -36 15
-134 32 -242 41 l-73 6 -35 -38z"/>
</g>
</svg>
